<?xml version="1.0" standalone="no"?>
<!DOCTYPE svg PUBLIC "-//W3C//DTD SVG 20010904//EN"
 "http://www.w3.org/TR/2001/REC-SVG-20010904/DTD/svg10.dtd">
<svg version="1.0" xmlns="http://www.w3.org/2000/svg"
 width="435.000000pt" height="213.000000pt" viewBox="0 0 435.000000 213.000000"
 preserveAspectRatio="xMidYMid meet">
<metadata>
Created by potrace 1.15, written by Peter Selinger 2001-2017
</metadata>
<g transform="translate(0.000000,213.000000) scale(0.100000,-0.100000)"
fill="#000000" stroke="none">
<path d="M422 1413 l3 -258 32 -67 c62 -131 177 -219 314 -238 35 -5 155 -10
267 -10 l203 0 -3 258 -3 258 -38 76 c-63 128 -173 209 -310 229 -34 5 -153 9
-265 9 l-203 0 3 -257z m552 153 c78 -38 131 -93 169 -174 31 -67 31 -67 35
-274 l4 -208 -203 0 c-112 0 -220 5 -239 10 -61 17 -143 73 -182 125 -62 82
-70 116 -75 332 -3 106 -3 199 1 208 5 15 29 16 219 13 211 -3 212 -3 271 -32z"/>
<path d="M753 1516 c-89 -29 -152 -90 -181 -175 -15 -43 -14 -136 1 -178 57
-154 231 -222 381 -149 93 46 144 131 144 241 0 71 -12 108 -54 168 -58 81
-194 125 -291 93z m162 -75 c22 -10 52 -31 67 -47 28 -30 58 -101 58 -138 0
-109 -99 -206 -210 -206 -67 0 -107 18 -152 68 -73 81 -76 189 -6 268 63 72
159 94 243 55z"/>
<path d="M763 1370 c-45 -27 -65 -62 -65 -115 0 -53 20 -88 65 -115 60 -37
143 -17 182 44 21 32 21 110 0 142 -39 61 -122 81 -182 44z m117 -70 c42 -42
11 -113 -50 -113 -58 0 -89 62 -54 111 20 29 76 30 104 2z"/>
<path d="M1852 1488 c-20 -26 -143 -328 -137 -338 9 -14 81 -12 92 3 6 6 27
54 48 105 21 50 41 92 45 92 10 0 109 -238 102 -245 -3 -3 -74 -5 -158 -5
-147 0 -154 -1 -168 -22 -9 -12 -16 -33 -16 -45 l0 -23 240 0 c220 0 240 1
240 17 0 19 -164 414 -186 451 -11 16 -24 22 -53 22 -21 0 -43 -6 -49 -12z"/>
<path d="M2213 1484 c-6 -17 7 -37 195 -294 l128 -175 44 0 45 0 0 240 0 240
-40 0 -40 0 -3 -152 c-1 -84 -6 -153 -10 -153 -5 0 -59 70 -122 155 -113 153
-114 155 -152 155 -26 0 -41 -5 -45 -16z"/>
<path d="M2744 1476 c-3 -13 -3 -34 1 -44 5 -19 16 -21 136 -24 123 -3 132 -4
150 -27 26 -32 24 -67 -6 -96 -23 -24 -30 -25 -143 -25 -78 0 -122 -4 -130
-12 -14 -14 -17 -205 -3 -226 5 -8 23 -12 47 -10 l39 3 5 75 5 75 95 5 c110 6
163 30 186 86 20 47 18 123 -4 164 -33 60 -77 75 -234 78 l-137 3 -7 -25z"/>
<path d="M3227 1494 c-4 -4 -7 -24 -7 -45 l0 -37 136 -4 c129 -3 137 -4 155
-27 24 -29 24 -53 0 -82 -18 -23 -26 -24 -155 -27 l-136 -4 0 -130 0 -129 43
3 42 3 3 83 3 82 59 0 59 0 55 -85 c55 -84 56 -85 96 -85 56 0 60 19 18 83
-77 117 -73 103 -40 122 41 25 62 65 62 122 0 63 -27 112 -76 137 -33 18 -61
22 -174 24 -74 2 -139 0 -143 -4z"/>
<path d="M2210 1161 c-12 -23 -13 -120 -1 -139 5 -8 23 -12 47 -10 l39 3 3 74
c3 81 -2 91 -50 91 -17 0 -31 -7 -38 -19z"/>
</g>
</svg>
